<svg width="862" height="530" viewBox="0 0 862 530" fill="none" xmlns="http://www.w3.org/2000/svg">
<path opacity="0.23" d="M713 433.264H163C151.954 433.264 143 425.125 143 415.084C143 405.043 151.954 396.904 163 396.904H713C724.046 396.904 733 405.043 733 415.084C733 425.125 724.046 433.264 713 433.264Z" fill="#1C1C1C"/>
<path d="M478.496 374.497H208.496C202.973 374.497 198.496 370.428 198.496 365.407V185.425C198.496 180.405 202.973 176.335 208.496 176.335H478.496C484.019 176.335 488.496 180.405 488.496 185.425V365.407C488.496 370.428 484.019 374.497 478.496 374.497Z" fill="#B4AAC1"/>
<path d="M204.496 359.894V185.426C204.496 183.418 206.287 181.79 208.496 181.79H478.496C480.705 181.79 482.496 183.418 482.496 185.426V359.894C482.496 361.902 480.705 363.53 478.496 363.53H208.496C206.287 363.53 204.496 361.902 204.496 359.894Z" fill="#D3D3D1"/>
<path d="M478.496 374.497H208.496C202.973 374.497 198.496 370.428 198.496 365.407V185.425C198.496 180.405 202.973 176.335 208.496 176.335H478.496C484.019 176.335 488.496 180.405 488.496 185.425V365.407C488.496 370.428 484.019 374.497 478.496 374.497Z" stroke="#0C1740" stroke-width="6" stroke-miterlimit="10" stroke-linecap="round" stroke-linejoin="round"/>
<path d="M216.496 331.38V198.666C216.496 194.65 220.078 191.394 224.496 191.394H462.496C466.914 191.394 470.496 194.65 470.496 198.666V331.38C470.496 335.396 466.914 338.652 462.496 338.652H224.496C220.078 338.652 216.496 335.396 216.496 331.38Z" fill="#B4AAC1"/>
<path d="M224.496 335.016C222.29 335.016 220.496 333.385 220.496 331.38V198.666C220.496 196.661 222.29 195.03 224.496 195.03H462.496C464.702 195.03 466.496 196.661 466.496 198.666V331.38C466.496 333.385 464.702 335.016 462.496 335.016H224.496Z" fill="#0C1740"/>
<g opacity="0.63">
<path fill-rule="evenodd" clip-rule="evenodd" d="M314.292 259.659V272.143H320.18V259.659H314.292ZM376.281 262.919L368.044 272.143H375.288L380.019 265.773L384.484 272.143H392.49L384.286 262.761L392.225 254.503H384.914L380.713 259.659L376.518 254.503H368.771L376.281 262.919V262.919ZM346.306 254.503V265.616C346.306 266.964 346.726 268.174 347.569 269.244C348.412 270.318 349.614 271.159 351.181 271.766C352.746 272.377 354.549 272.683 356.6 272.683C359.025 272.683 361.037 272.377 362.637 271.77C364.241 271.163 365.404 270.313 366.143 269.226C366.882 268.138 367.252 266.861 367.252 265.4V254.503H361.127V264.667C361.127 265.62 360.994 266.421 360.719 267.068C360.449 267.715 359.98 268.214 359.318 268.57C358.651 268.92 357.747 269.096 356.6 269.096C353.838 269.096 352.46 267.675 352.46 264.834V254.503H346.306ZM322.825 254.503V272.143H328.179V258.872L335.423 272.143H343.963V254.503H338.505V267.558L331.288 254.503H322.825Z" fill="#244480"/>
<path fill-rule="evenodd" clip-rule="evenodd" d="M314.292 254.503V257.56H320.18V254.503H314.292Z" fill="#152352"/>
<path fill-rule="evenodd" clip-rule="evenodd" d="M297 254.503V272.143H312.784V268.502H303.153V254.503H297Z" fill="#244480"/>
</g>
<path d="M362.746 374.497H324.246C324.246 386.456 311.221 396.391 294.383 397.274L280.06 398.026C272.443 398.426 266.495 404.052 266.495 410.857H420.495C420.495 404.052 414.547 398.425 406.93 398.026L392.607 397.274C375.771 396.391 362.746 386.457 362.746 374.497Z" fill="#B4AAC1"/>
<path d="M294.384 397.274L280.061 398.026C272.444 398.426 266.496 404.052 266.496 410.857H420.496C420.496 404.052 414.548 398.425 406.931 398.026L392.608 397.274C390.66 397.172 388.765 396.943 386.934 396.61H300.058C298.226 396.944 296.332 397.172 294.384 397.274Z" fill="#D3D3D1"/>
<path d="M368.673 387.691C364.935 383.955 362.746 379.397 362.746 374.498H324.246C324.246 379.398 322.058 383.955 318.319 387.691H368.673Z" fill="#958BA5"/>
<path d="M362.746 374.497H324.246C324.246 386.456 311.221 396.391 294.383 397.274L280.06 398.026C272.443 398.426 266.495 404.052 266.495 410.857H420.495C420.495 404.052 414.547 398.425 406.93 398.026L392.607 397.274C375.771 396.391 362.746 386.457 362.746 374.497Z" stroke="#0C1740" stroke-width="6" stroke-miterlimit="10" stroke-linecap="round" stroke-linejoin="round"/>
<path d="M652.875 398.131H520.875C516.457 398.131 512.875 394.875 512.875 390.859V130.885C512.875 126.869 516.457 123.613 520.875 123.613H652.875C657.293 123.613 660.875 126.869 660.875 130.885V390.859C660.875 394.876 657.293 398.131 652.875 398.131Z" fill="#364477"/>
<path d="M652.875 398.131H520.875C516.457 398.131 512.875 394.875 512.875 390.859V130.885C512.875 126.869 516.457 123.613 520.875 123.613H652.875C657.293 123.613 660.875 126.869 660.875 130.885V390.859C660.875 394.876 657.293 398.131 652.875 398.131Z" stroke="#0C1740" stroke-width="6" stroke-miterlimit="10" stroke-linecap="round" stroke-linejoin="round"/>
<path d="M586.875 389.041C551.585 389.041 522.875 362.944 522.875 330.865V133.612C522.875 133.111 523.323 132.703 523.875 132.703H649.875C650.427 132.703 650.875 133.111 650.875 133.612V330.865C650.875 362.944 622.165 389.041 586.875 389.041Z" fill="#3E5080"/>
<path d="M522.875 153.169V318.637C522.875 351.284 551.585 377.844 586.875 377.844C622.165 377.844 650.875 351.284 650.875 318.637V153.169H522.875Z" fill="#364477"/>
<path d="M586.875 389.041C551.585 389.041 522.875 362.944 522.875 330.865V133.612C522.875 133.111 523.323 132.703 523.875 132.703H649.875C650.427 132.703 650.875 133.111 650.875 133.612V330.865C650.875 362.944 622.165 389.041 586.875 389.041Z" stroke="#0C1740" stroke-width="3" stroke-miterlimit="10" stroke-linecap="round" stroke-linejoin="round"/>
<path d="M586.875 367.239C551.585 367.239 522.875 341.142 522.875 309.063V133.613C522.875 133.112 523.323 132.704 523.875 132.704H649.875C650.427 132.704 650.875 133.112 650.875 133.613V309.063C650.875 341.142 622.165 367.239 586.875 367.239Z" fill="#485D8C"/>
<path d="M586.875 367.239C551.585 367.239 522.875 341.142 522.875 309.063V133.613C522.875 133.112 523.323 132.704 523.875 132.704H649.875C650.427 132.704 650.875 133.112 650.875 133.613V309.063C650.875 341.142 622.165 367.239 586.875 367.239Z" stroke="#0C1740" stroke-width="3" stroke-miterlimit="10" stroke-linecap="round" stroke-linejoin="round"/>
<path d="M642.875 398.131H530.875V410.857H642.875V398.131Z" fill="#263866"/>
<path d="M642.875 398.131H530.875V404.494H642.875V398.131Z" fill="#1B2F5B"/>
<path d="M642.875 398.131H530.875V410.857H642.875V398.131Z" stroke="#0C1740" stroke-width="6" stroke-miterlimit="10" stroke-linecap="round" stroke-linejoin="round"/>
<path d="M638.357 163.872H535.393C532.898 163.872 530.875 162.033 530.875 159.765V144.778C530.875 142.51 532.898 140.671 535.393 140.671H638.357C640.852 140.671 642.875 142.51 642.875 144.778V159.765C642.875 162.034 640.852 163.872 638.357 163.872Z" fill="#364477"/>
<path d="M638.357 163.872H535.393C532.898 163.872 530.875 162.033 530.875 159.765V144.778C530.875 142.51 532.898 140.671 535.393 140.671H638.357C640.852 140.671 642.875 142.51 642.875 144.778V159.765C642.875 162.034 640.852 163.872 638.357 163.872Z" stroke="#0C1740" stroke-width="2" stroke-miterlimit="10" stroke-linecap="round" stroke-linejoin="round"/>
<path d="M638.357 197.256H568.749C566.254 197.256 564.231 195.417 564.231 193.149V182.775C564.231 180.507 566.254 178.668 568.749 178.668H638.357C640.852 178.668 642.875 180.507 642.875 182.775V193.149C642.875 195.417 640.852 197.256 638.357 197.256Z" fill="#364477"/>
<path d="M638.357 197.256H568.749C566.254 197.256 564.231 195.417 564.231 193.149V182.775C564.231 180.507 566.254 178.668 568.749 178.668H638.357C640.852 178.668 642.875 180.507 642.875 182.775V193.149C642.875 195.417 640.852 197.256 638.357 197.256Z" stroke="#0C1740" stroke-width="2" stroke-miterlimit="10" stroke-linecap="round" stroke-linejoin="round"/>
<path d="M588.688 334.852C598.503 334.852 606.459 327.62 606.459 318.698C606.459 309.777 598.503 302.545 588.688 302.545C578.873 302.545 570.917 309.777 570.917 318.698C570.917 327.62 578.873 334.852 588.688 334.852Z" fill="#5873A3"/>
<path d="M641.072 248.615H532.678C531.682 248.615 530.875 247.881 530.875 246.976V224.801C530.875 223.895 531.682 223.162 532.678 223.162H641.073C642.069 223.162 642.876 223.895 642.876 224.801V246.976C642.875 247.881 642.068 248.615 641.072 248.615Z" fill="#364477"/>
<path d="M586.875 283.473C592.56 283.473 597.168 279.284 597.168 274.116C597.168 268.949 592.56 264.76 586.875 264.76C581.19 264.76 576.582 268.949 576.582 274.116C576.582 279.284 581.19 283.473 586.875 283.473Z" fill="#0C1740"/>
<path d="M586.875 282.727C592.106 282.727 596.347 278.872 596.347 274.117C596.347 269.361 592.106 265.506 586.875 265.506C581.644 265.506 577.403 269.361 577.403 274.117C577.403 278.872 581.644 282.727 586.875 282.727Z" fill="#1F2F63"/>
<path d="M629.137 239.07H610.324C609.72 239.07 609.23 238.625 609.23 238.076V233.701C609.23 233.151 609.72 232.706 610.324 232.706H629.137C629.741 232.706 630.231 233.151 630.231 233.701V238.076C630.23 238.625 629.741 239.07 629.137 239.07Z" fill="#0C1740"/>
<path d="M610.23 235.803V233.701C610.23 233.653 610.272 233.615 610.324 233.615H629.137C629.189 233.615 629.231 233.653 629.231 233.701V235.803C629.231 235.85 629.189 235.888 629.137 235.888H610.324C610.272 235.888 610.23 235.85 610.23 235.803Z" fill="#485D8C"/>
<path d="M603.387 239.07H584.574C583.97 239.07 583.48 238.625 583.48 238.076V233.701C583.48 233.151 583.97 232.706 584.574 232.706H603.387C603.991 232.706 604.481 233.151 604.481 233.701V238.076C604.48 238.625 603.991 239.07 603.387 239.07Z" fill="#0C1740"/>
<path d="M584.48 235.803V233.701C584.48 233.653 584.522 233.615 584.574 233.615H603.387C603.439 233.615 603.481 233.653 603.481 233.701V235.803C603.481 235.85 603.439 235.888 603.387 235.888H584.574C584.522 235.888 584.48 235.85 584.48 235.803Z" fill="#485D8C"/>
<path opacity="0.51" d="M452.105 356.129C455.419 356.129 458.105 353.687 458.105 350.675C458.105 347.663 455.419 345.221 452.105 345.221C448.791 345.221 446.105 347.663 446.105 350.675C446.105 353.687 448.791 356.129 452.105 356.129Z" fill="#0C1740"/>
<path d="M452.105 355.738C455.181 355.738 457.675 353.471 457.675 350.675C457.675 347.879 455.181 345.612 452.105 345.612C449.029 345.612 446.535 347.879 446.535 350.675C446.535 353.471 449.029 355.738 452.105 355.738Z" fill="white"/>
<path opacity="0.51" d="M438.23 353.402C439.887 353.402 441.23 352.181 441.23 350.675C441.23 349.169 439.887 347.948 438.23 347.948C436.573 347.948 435.23 349.169 435.23 350.675C435.23 352.181 436.573 353.402 438.23 353.402Z" fill="#0C1740"/>
<path d="M438.23 353.2C439.764 353.2 441.008 352.07 441.008 350.675C441.008 349.281 439.764 348.15 438.23 348.15C436.696 348.15 435.452 349.281 435.452 350.675C435.452 352.07 436.696 353.2 438.23 353.2Z" fill="white"/>
<g opacity="0.49">
<path opacity="0.49" d="M338.411 349.19L336.38 351.036L344.505 358.421L346.536 356.575L338.411 349.19Z" fill="#0C1740"/>
<path opacity="0.49" d="M342.474 345.497L338.412 349.19L340.443 351.036L344.505 347.343L342.474 345.497Z" fill="#0C1740"/>
<path opacity="0.49" d="M348.567 351.037L344.505 354.729L346.536 356.575L350.598 352.883L348.567 351.037Z" fill="#0C1740"/>
<path opacity="0.49" d="M345.52 348.267L341.458 351.96L343.489 353.806L347.551 350.113L345.52 348.267Z" fill="#0C1740"/>
</g>
<path d="M581.609 314.842L578.781 317.413L590.095 327.697L592.923 325.126L581.609 314.842Z" fill="#485D8C"/>
<path d="M587.266 309.7L581.609 314.843L584.438 317.414L590.095 312.271L587.266 309.7Z" fill="#485D8C"/>
<path d="M595.751 317.413L590.094 322.555L592.923 325.126L598.58 319.984L595.751 317.413Z" fill="#485D8C"/>
<path d="M591.508 313.557L585.851 318.699L588.679 321.27L594.336 316.128L591.508 313.557Z" fill="#485D8C"/>
<path d="M634.814 190.703H570.98C570.29 190.703 569.73 190.194 569.73 189.567V185.628C569.73 185.001 570.29 184.492 570.98 184.492H634.813C635.503 184.492 636.063 185.001 636.063 185.628V189.567C636.064 190.195 635.504 190.703 634.814 190.703Z" fill="#0C1740"/>
<path d="M623.23 192.597H608.397C605.359 192.597 602.897 190.359 602.897 187.598C602.897 184.836 605.359 182.598 608.397 182.598H623.23C626.268 182.598 628.73 184.836 628.73 187.598C628.73 190.358 626.268 192.597 623.23 192.597Z" fill="#0C1740"/>
<path d="M571.73 187.598C571.73 186.887 572.364 186.31 573.147 186.31H632.647C633.429 186.31 634.064 186.886 634.064 187.598C634.064 188.309 633.43 188.886 632.647 188.886H573.147C572.365 188.885 571.73 188.309 571.73 187.598Z" fill="#091438"/>
<path d="M572.604 239.07C574.537 239.07 576.104 237.646 576.104 235.889C576.104 234.131 574.537 232.707 572.604 232.707C570.671 232.707 569.104 234.131 569.104 235.889C569.104 237.646 570.671 239.07 572.604 239.07Z" fill="#0C1740"/>
<path d="M558.373 239.07C560.306 239.07 561.873 237.646 561.873 235.889C561.873 234.131 560.306 232.707 558.373 232.707C556.44 232.707 554.873 234.131 554.873 235.889C554.873 237.646 556.44 239.07 558.373 239.07Z" fill="#0C1740"/>
<path opacity="0.58" d="M572.604 239.07C574.537 239.07 576.104 237.646 576.104 235.889C576.104 234.131 574.537 232.707 572.604 232.707C570.671 232.707 569.104 234.131 569.104 235.889C569.104 237.646 570.671 239.07 572.604 239.07Z" stroke="#1AC17D" stroke-width="2" stroke-miterlimit="10"/>
<path opacity="0.58" d="M558.373 239.07C560.306 239.07 561.873 237.646 561.873 235.889C561.873 234.131 560.306 232.707 558.373 232.707C556.44 232.707 554.873 234.131 554.873 235.889C554.873 237.646 556.44 239.07 558.373 239.07Z" stroke="#F9232E" stroke-width="2" stroke-miterlimit="10"/>
<path d="M582.693 269.635C581.295 270.715 580.403 272.322 580.403 274.116C580.403 277.36 583.306 280 586.875 280C590.444 280 593.347 277.361 593.347 274.116C593.347 272.322 592.456 270.715 591.057 269.635" stroke="#0C1740" stroke-width="2" stroke-miterlimit="10" stroke-linecap="round" stroke-linejoin="round"/>
<path d="M586.875 267.192V274.116" stroke="#0C1740" stroke-width="2" stroke-miterlimit="10" stroke-linecap="round" stroke-linejoin="round"/>
<path d="M637.605 155.669H536.355C535.596 155.669 534.98 155.109 534.98 154.419V145.784C534.98 145.094 535.596 144.534 536.355 144.534H637.605C638.364 144.534 638.98 145.094 638.98 145.784V154.419C638.98 155.109 638.365 155.669 637.605 155.669ZM637.376 161.047H630.751C630.302 161.047 629.938 160.716 629.938 160.308V159.285C629.938 158.877 630.302 158.546 630.751 158.546H637.376C637.825 158.546 638.189 158.877 638.189 159.285V160.308C638.188 160.717 637.825 161.047 637.376 161.047Z" fill="#0C1740"/>
<path d="M625.522 161.047C624.763 161.047 624.147 160.487 624.147 159.797C624.147 159.107 624.763 158.547 625.522 158.547C626.281 158.547 626.897 159.107 626.897 159.797C626.897 160.488 626.281 161.047 625.522 161.047Z" fill="#2AD142"/>
<path d="M604.147 268.158C605.424 268.158 606.46 267.217 606.46 266.055C606.46 264.894 605.424 263.953 604.147 263.953C602.87 263.953 601.834 264.894 601.834 266.055C601.834 267.217 602.87 268.158 604.147 268.158Z" fill="#0C1740"/>
<path d="M604.147 267.59C605.079 267.59 605.835 266.903 605.835 266.055C605.835 265.208 605.079 264.521 604.147 264.521C603.215 264.521 602.459 265.208 602.459 266.055C602.459 266.903 603.215 267.59 604.147 267.59Z" fill="#1F2F63"/>
<path d="M504.97 407.562H400.97V399.905C400.97 397.256 403.332 395.109 406.246 395.109H499.694C502.608 395.109 504.97 397.256 504.97 399.905V407.562ZM335.13 407.562H315.13V399.905C315.13 397.256 317.492 395.109 320.406 395.109H329.854C332.768 395.109 335.13 397.256 335.13 399.905V407.562ZM363.05 407.562H343.05V399.905C343.05 397.256 345.412 395.109 348.326 395.109H357.774C360.688 395.109 363.05 397.256 363.05 399.905V407.562ZM532.89 407.562H512.89V399.905C512.89 397.256 515.252 395.109 518.166 395.109H527.614C530.528 395.109 532.89 397.256 532.89 399.905V407.562V407.562ZM561.81 407.562H541.81V399.905C541.81 397.256 544.172 395.109 547.086 395.109H556.534C559.448 395.109 561.81 397.256 561.81 399.905V407.562V407.562ZM589.73 407.562H569.73V399.905C569.73 397.256 572.092 395.109 575.006 395.109H584.454C587.368 395.109 589.73 397.256 589.73 399.905V407.562V407.562Z" fill="#B7B7B7"/>
<path d="M596.455 422.606H309.005C304.435 422.606 300.73 419.238 300.73 415.084C300.73 410.93 304.435 407.562 309.005 407.562H596.455C601.025 407.562 604.73 410.93 604.73 415.084C604.73 419.238 601.025 422.606 596.455 422.606Z" fill="#D3D3D1"/>
<path d="M504.97 407.562H400.97V399.905C400.97 397.256 403.332 395.109 406.246 395.109H499.694C502.608 395.109 504.97 397.256 504.97 399.905V407.562ZM335.13 407.562H315.13V399.905C315.13 397.256 317.492 395.109 320.406 395.109H329.854C332.768 395.109 335.13 397.256 335.13 399.905V407.562ZM363.05 407.562H343.05V399.905C343.05 397.256 345.412 395.109 348.326 395.109H357.774C360.688 395.109 363.05 397.256 363.05 399.905V407.562Z" stroke="#0C1740" stroke-width="6" stroke-miterlimit="10" stroke-linecap="round" stroke-linejoin="round"/>
<path d="M392.074 407.562H372.074V399.905C372.074 397.256 374.436 395.109 377.35 395.109H386.798C389.712 395.109 392.074 397.256 392.074 399.905V407.562Z" fill="#B7B7B7"/>
<path d="M392.074 407.562H372.074V399.905C372.074 397.256 374.436 395.109 377.35 395.109H386.798C389.712 395.109 392.074 397.256 392.074 399.905V407.562ZM532.89 407.562H512.89V399.905C512.89 397.256 515.252 395.109 518.166 395.109H527.614C530.528 395.109 532.89 397.256 532.89 399.905V407.562V407.562ZM561.81 407.562H541.81V399.905C541.81 397.256 544.172 395.109 547.086 395.109H556.534C559.448 395.109 561.81 397.256 561.81 399.905V407.562V407.562ZM589.73 407.562H569.73V399.905C569.73 397.256 572.092 395.109 575.006 395.109H584.454C587.368 395.109 589.73 397.256 589.73 399.905V407.562V407.562ZM596.455 422.606H309.005C304.435 422.606 300.73 419.238 300.73 415.084C300.73 410.93 304.435 407.562 309.005 407.562H596.455C601.025 407.562 604.73 410.93 604.73 415.084C604.73 419.238 601.025 422.606 596.455 422.606Z" stroke="#0C1740" stroke-width="6" stroke-miterlimit="10" stroke-linecap="round" stroke-linejoin="round"/>
<path d="M618.526 422.606C618.526 411.587 628.353 402.655 640.474 402.655C652.595 402.655 662.422 411.588 662.422 422.606H618.526Z" fill="#D3D3D1"/>
<path d="M618.526 422.606C618.526 411.587 628.353 402.655 640.474 402.655C652.595 402.655 662.422 411.588 662.422 422.606H618.526Z" stroke="#0C1740" stroke-width="6" stroke-miterlimit="10" stroke-linecap="round" stroke-linejoin="round"/>
<path d="M640.474 404.595V410.614" stroke="#0C1740" stroke-width="6" stroke-miterlimit="10" stroke-linecap="round" stroke-linejoin="round"/>
<path opacity="0.72" d="M299.654 335.015L378.121 195.029H340.349L261.882 335.015H299.654Z" fill="#192859"/>
<path opacity="0.72" d="M346.643 335.015L425.11 195.029H406.224L327.758 335.015H346.643Z" fill="#192859"/>
<g clip-path="url(#clip0_0_1)">
<mask id="path-71-inside-1_0_1" fill="white">
<path d="M543.096 267.073C542.984 266.915 542.911 266.736 542.883 266.55C542.852 266.334 542.744 266.133 542.577 265.977V265.977C542.541 265.946 542.501 265.92 542.458 265.897C542.421 265.875 542.381 265.858 542.34 265.846C542.586 265.143 542.546 264.383 542.227 263.705C541.901 262.978 541.44 262.308 540.865 261.722C540.292 261.215 539.945 260.534 539.89 259.808C539.903 258.593 540.04 256.321 537.666 256.321H537.353C534.704 256.514 535.41 259.059 535.373 259.911C535.345 260.526 535.114 261.12 534.71 261.615C533.982 262.375 533.406 263.246 533.011 264.187C532.829 264.641 532.767 265.128 532.83 265.607C532.804 265.625 532.781 265.646 532.761 265.67C532.598 265.823 532.48 266.016 532.342 266.147C532.197 266.251 532.029 266.325 531.849 266.363C531.619 266.422 531.424 266.561 531.305 266.749V266.749C531.247 266.851 531.219 266.964 531.224 267.078C531.218 267.183 531.218 267.287 531.224 267.391C531.268 267.578 531.268 267.772 531.224 267.959C531.158 268.094 531.124 268.24 531.125 268.388C531.126 268.536 531.162 268.682 531.23 268.816C531.294 268.908 531.38 268.986 531.482 269.043C531.584 269.1 531.698 269.135 531.817 269.146C532.411 269.182 532.996 269.295 533.554 269.481L533.604 269.384L533.561 269.464C534.056 269.722 534.634 269.818 535.198 269.737C535.362 269.708 535.516 269.645 535.649 269.552C535.781 269.459 535.888 269.34 535.96 269.203C536.322 269.203 536.729 269.055 537.372 269.027C537.81 268.993 538.359 269.169 538.984 269.135C539.003 269.195 539.028 269.254 539.059 269.311V269.311C539.156 269.516 539.322 269.688 539.533 269.803C539.744 269.919 539.989 269.971 540.234 269.952C540.512 269.92 540.78 269.838 541.023 269.71C541.265 269.582 541.477 269.412 541.646 269.208L541.571 269.152L541.646 269.208C542.085 268.847 542.591 268.559 543.139 268.356C543.246 268.312 543.339 268.244 543.41 268.159C543.481 268.073 543.527 267.974 543.546 267.868C543.515 267.56 543.353 267.275 543.096 267.073V267.073ZM537.247 259.081C537.246 258.932 537.283 258.785 537.353 258.65C537.409 258.522 537.502 258.41 537.622 258.326C537.729 258.25 537.861 258.208 537.997 258.207C538.129 258.205 538.257 258.245 538.359 258.32C538.483 258.401 538.581 258.511 538.641 258.638C538.709 258.77 538.743 258.913 538.741 259.059V259.059C538.742 259.209 538.708 259.359 538.641 259.496C538.607 259.569 538.563 259.638 538.509 259.7H538.453L538.272 259.632L538.134 259.593C538.181 259.556 538.221 259.514 538.253 259.468C538.287 259.392 538.303 259.311 538.303 259.229C538.31 259.152 538.297 259.074 538.266 259.002C538.246 258.933 538.208 258.871 538.153 258.82C538.109 258.778 538.048 258.754 537.984 258.752C537.924 258.751 537.866 258.771 537.822 258.809C537.763 258.855 537.718 258.913 537.691 258.979C537.657 259.055 537.638 259.136 537.635 259.218C537.628 259.263 537.628 259.309 537.635 259.354C537.513 259.302 537.385 259.262 537.253 259.235C537.25 259.193 537.25 259.151 537.253 259.11L537.247 259.081ZM535.635 259.121C535.626 258.993 535.642 258.863 535.685 258.741C535.717 258.633 535.779 258.535 535.866 258.457C535.934 258.388 536.028 258.345 536.129 258.337V258.337C536.223 258.339 536.314 258.371 536.385 258.428C536.478 258.498 536.551 258.588 536.597 258.689C536.654 258.808 536.686 258.935 536.691 259.064V259.064C536.697 259.119 536.697 259.174 536.691 259.229H536.635C536.549 259.255 536.466 259.291 536.391 259.337C536.397 259.288 536.397 259.238 536.391 259.189C536.389 259.124 536.372 259.061 536.341 259.002C536.32 258.948 536.286 258.9 536.241 258.86C536.208 258.835 536.166 258.82 536.122 258.82V258.82C536.099 258.822 536.076 258.829 536.056 258.839C536.035 258.85 536.017 258.865 536.004 258.883C535.968 258.929 535.942 258.981 535.929 259.036C535.919 259.102 535.919 259.169 535.929 259.235V259.235C535.934 259.299 535.951 259.363 535.979 259.422C536.002 259.476 536.038 259.525 536.085 259.564V259.564L535.979 259.644L535.891 259.7C535.817 259.633 535.759 259.552 535.723 259.462C535.666 259.345 535.632 259.22 535.623 259.093L535.635 259.121ZM535.754 259.956L536.054 259.752L536.166 259.678C536.312 259.532 536.491 259.418 536.691 259.343C536.785 259.312 536.885 259.297 536.985 259.297C537.259 259.309 537.523 259.392 537.747 259.536C537.96 259.635 538.182 259.718 538.409 259.786C538.534 259.824 538.639 259.901 538.709 260.001C538.729 260.044 538.74 260.089 538.74 260.135C538.74 260.181 538.729 260.226 538.709 260.268C538.644 260.387 538.551 260.491 538.436 260.574C538.322 260.656 538.189 260.715 538.047 260.746V260.746C537.878 260.815 537.717 260.899 537.566 260.995C537.379 261.102 537.161 261.154 536.941 261.143C536.844 261.141 536.749 261.122 536.66 261.086C536.588 261.057 536.52 261.019 536.46 260.973C536.342 260.868 536.215 260.773 536.079 260.689V260.689C535.882 260.609 535.727 260.462 535.648 260.28C535.623 260.223 535.62 260.16 535.639 260.101C535.658 260.042 535.699 259.991 535.754 259.956ZM535.854 268.845C535.85 269.024 535.778 269.196 535.649 269.331C535.519 269.466 535.342 269.555 535.148 269.583C534.63 269.655 534.1 269.563 533.648 269.322C533.074 269.122 532.469 269.005 531.855 268.976C531.766 268.968 531.68 268.944 531.602 268.903C531.525 268.863 531.457 268.808 531.405 268.743C531.329 268.508 531.356 268.256 531.48 268.038V268.038C531.533 267.827 531.533 267.608 531.48 267.397C531.418 267.223 531.418 267.036 531.48 266.863C531.526 266.789 531.588 266.724 531.662 266.672C531.736 266.62 531.821 266.583 531.911 266.562C532.124 266.52 532.322 266.43 532.486 266.3V266.3C532.648 266.147 532.767 265.954 532.905 265.818C532.954 265.761 533.017 265.715 533.088 265.682C533.159 265.65 533.237 265.632 533.317 265.63H533.423C533.684 265.693 533.908 265.846 534.048 266.056L534.617 267.005C534.836 267.334 535.087 267.646 535.366 267.936C535.622 268.184 535.782 268.501 535.823 268.839L535.854 268.845ZM535.804 268.152C535.729 268.044 535.641 267.942 535.554 267.834L535.385 267.635C535.484 267.637 535.582 267.62 535.673 267.584C535.764 267.548 535.835 267.48 535.873 267.397C535.897 267.278 535.889 267.156 535.851 267.04C535.813 266.925 535.746 266.819 535.654 266.732C535.344 266.382 534.965 266.09 534.535 265.869V265.869C534.196 265.692 533.938 265.41 533.811 265.074C533.72 264.767 533.72 264.443 533.811 264.136C533.981 263.578 534.249 263.049 534.604 262.569C534.667 262.523 534.604 262.654 534.348 263.137C534.092 263.62 533.629 264.557 534.267 265.329C534.291 264.766 534.428 264.211 534.673 263.693C535.029 262.966 535.766 261.7 535.829 260.694C535.887 260.734 535.947 260.77 536.01 260.802V260.802C536.139 260.886 536.262 260.977 536.379 261.075C536.531 261.193 536.722 261.261 536.922 261.268H536.997C537.218 261.264 537.433 261.207 537.622 261.103C537.768 261.011 537.923 260.931 538.084 260.865V260.865C538.333 260.791 538.551 260.65 538.709 260.462C538.996 261.339 539.379 262.188 539.853 262.995C540.176 263.528 540.408 264.102 540.54 264.699C540.65 264.697 540.759 264.708 540.865 264.733C540.984 264.333 540.984 263.911 540.863 263.511C540.742 263.112 540.505 262.749 540.178 262.461C540.04 262.336 540.034 262.285 540.103 262.285C540.598 262.723 540.945 263.281 541.102 263.892C541.187 264.204 541.187 264.529 541.102 264.841L541.234 264.892C541.858 265.176 542.121 265.426 542.002 265.766H541.883C541.977 265.5 541.765 265.301 541.215 265.074C540.665 264.846 540.184 264.863 540.103 265.329C540.103 265.358 540.103 265.38 540.103 265.403L539.971 265.46C539.84 265.533 539.727 265.631 539.64 265.748C539.554 265.865 539.497 265.997 539.472 266.136C539.392 266.485 539.35 266.841 539.347 267.198V267.198C539.305 267.46 539.238 267.718 539.147 267.97C538.679 268.311 538.106 268.512 537.507 268.544C536.908 268.577 536.313 268.44 535.804 268.152V268.152ZM543.033 268.192C542.463 268.399 541.941 268.704 541.496 269.089C541.19 269.452 540.743 269.696 540.246 269.771C540.038 269.798 539.825 269.762 539.641 269.669C539.457 269.575 539.312 269.429 539.228 269.254V269.254C539.119 268.937 539.133 268.597 539.265 268.288C539.398 267.937 539.494 267.576 539.553 267.209V267.209C539.561 266.862 539.603 266.516 539.678 266.175C539.696 266.06 539.741 265.95 539.81 265.852C539.879 265.754 539.97 265.671 540.078 265.607H540.109C540.101 265.774 540.15 265.938 540.248 266.078C540.347 266.218 540.49 266.327 540.659 266.391C540.87 266.403 541.082 266.371 541.277 266.296C541.472 266.221 541.646 266.106 541.783 265.96H541.915C542.009 265.948 542.105 265.954 542.197 265.979C542.289 266.003 542.373 266.045 542.446 266.102V266.102C542.583 266.241 542.668 266.416 542.69 266.601C542.733 266.818 542.831 267.022 542.977 267.198V267.198C543.283 267.504 543.383 267.715 543.371 267.851C543.358 267.987 543.233 268.084 543.033 268.192V268.192ZM535.866 260.297C535.766 260.223 535.779 260.121 535.816 260.121C535.854 260.121 535.904 260.217 535.948 260.251C536.019 260.318 536.094 260.38 536.172 260.439C536.377 260.598 536.635 260.688 536.904 260.694C537.215 260.668 537.515 260.575 537.778 260.422C537.919 260.344 538.055 260.259 538.184 260.166C538.284 260.098 538.278 260.019 538.359 260.03C538.441 260.041 538.359 260.115 538.266 260.206C538.133 260.311 537.989 260.402 537.835 260.479C537.554 260.641 537.235 260.74 536.904 260.768C536.606 260.758 536.322 260.651 536.104 260.467C536.022 260.414 535.942 260.357 535.866 260.297V260.297Z"/>
</mask>
<path d="M543.096 267.073C542.984 266.915 542.911 266.736 542.883 266.55C542.852 266.334 542.744 266.133 542.577 265.977V265.977C542.541 265.946 542.501 265.92 542.458 265.897C542.421 265.875 542.381 265.858 542.34 265.846C542.586 265.143 542.546 264.383 542.227 263.705C541.901 262.978 541.44 262.308 540.865 261.722C540.292 261.215 539.945 260.534 539.89 259.808C539.903 258.593 540.04 256.321 537.666 256.321H537.353C534.704 256.514 535.41 259.059 535.373 259.911C535.345 260.526 535.114 261.12 534.71 261.615C533.982 262.375 533.406 263.246 533.011 264.187C532.829 264.641 532.767 265.128 532.83 265.607C532.804 265.625 532.781 265.646 532.761 265.67C532.598 265.823 532.48 266.016 532.342 266.147C532.197 266.251 532.029 266.325 531.849 266.363C531.619 266.422 531.424 266.561 531.305 266.749V266.749C531.247 266.851 531.219 266.964 531.224 267.078C531.218 267.183 531.218 267.287 531.224 267.391C531.268 267.578 531.268 267.772 531.224 267.959C531.158 268.094 531.124 268.24 531.125 268.388C531.126 268.536 531.162 268.682 531.23 268.816C531.294 268.908 531.38 268.986 531.482 269.043C531.584 269.1 531.698 269.135 531.817 269.146C532.411 269.182 532.996 269.295 533.554 269.481L533.604 269.384L533.561 269.464C534.056 269.722 534.634 269.818 535.198 269.737C535.362 269.708 535.516 269.645 535.649 269.552C535.781 269.459 535.888 269.34 535.96 269.203C536.322 269.203 536.729 269.055 537.372 269.027C537.81 268.993 538.359 269.169 538.984 269.135C539.003 269.195 539.028 269.254 539.059 269.311V269.311C539.156 269.516 539.322 269.688 539.533 269.803C539.744 269.919 539.989 269.971 540.234 269.952C540.512 269.92 540.78 269.838 541.023 269.71C541.265 269.582 541.477 269.412 541.646 269.208L541.571 269.152L541.646 269.208C542.085 268.847 542.591 268.559 543.139 268.356C543.246 268.312 543.339 268.244 543.41 268.159C543.481 268.073 543.527 267.974 543.546 267.868C543.515 267.56 543.353 267.275 543.096 267.073V267.073ZM537.247 259.081C537.246 258.932 537.283 258.785 537.353 258.65C537.409 258.522 537.502 258.41 537.622 258.326C537.729 258.25 537.861 258.208 537.997 258.207C538.129 258.205 538.257 258.245 538.359 258.32C538.483 258.401 538.581 258.511 538.641 258.638C538.709 258.77 538.743 258.913 538.741 259.059V259.059C538.742 259.209 538.708 259.359 538.641 259.496C538.607 259.569 538.563 259.638 538.509 259.7H538.453L538.272 259.632L538.134 259.593C538.181 259.556 538.221 259.514 538.253 259.468C538.287 259.392 538.303 259.311 538.303 259.229C538.31 259.152 538.297 259.074 538.266 259.002C538.246 258.933 538.208 258.871 538.153 258.82C538.109 258.778 538.048 258.754 537.984 258.752C537.924 258.751 537.866 258.771 537.822 258.809C537.763 258.855 537.718 258.913 537.691 258.979C537.657 259.055 537.638 259.136 537.635 259.218C537.628 259.263 537.628 259.309 537.635 259.354C537.513 259.302 537.385 259.262 537.253 259.235C537.25 259.193 537.25 259.151 537.253 259.11L537.247 259.081ZM535.635 259.121C535.626 258.993 535.642 258.863 535.685 258.741C535.717 258.633 535.779 258.535 535.866 258.457C535.934 258.388 536.028 258.345 536.129 258.337V258.337C536.223 258.339 536.314 258.371 536.385 258.428C536.478 258.498 536.551 258.588 536.597 258.689C536.654 258.808 536.686 258.935 536.691 259.064V259.064C536.697 259.119 536.697 259.174 536.691 259.229H536.635C536.549 259.255 536.466 259.291 536.391 259.337C536.397 259.288 536.397 259.238 536.391 259.189C536.389 259.124 536.372 259.061 536.341 259.002C536.32 258.948 536.286 258.9 536.241 258.86C536.208 258.835 536.166 258.82 536.122 258.82V258.82C536.099 258.822 536.076 258.829 536.056 258.839C536.035 258.85 536.017 258.865 536.004 258.883C535.968 258.929 535.942 258.981 535.929 259.036C535.919 259.102 535.919 259.169 535.929 259.235V259.235C535.934 259.299 535.951 259.363 535.979 259.422C536.002 259.476 536.038 259.525 536.085 259.564V259.564L535.979 259.644L535.891 259.7C535.817 259.633 535.759 259.552 535.723 259.462C535.666 259.345 535.632 259.22 535.623 259.093L535.635 259.121ZM535.754 259.956L536.054 259.752L536.166 259.678C536.312 259.532 536.491 259.418 536.691 259.343C536.785 259.312 536.885 259.297 536.985 259.297C537.259 259.309 537.523 259.392 537.747 259.536C537.96 259.635 538.182 259.718 538.409 259.786C538.534 259.824 538.639 259.901 538.709 260.001C538.729 260.044 538.74 260.089 538.74 260.135C538.74 260.181 538.729 260.226 538.709 260.268C538.644 260.387 538.551 260.491 538.436 260.574C538.322 260.656 538.189 260.715 538.047 260.746V260.746C537.878 260.815 537.717 260.899 537.566 260.995C537.379 261.102 537.161 261.154 536.941 261.143C536.844 261.141 536.749 261.122 536.66 261.086C536.588 261.057 536.52 261.019 536.46 260.973C536.342 260.868 536.215 260.773 536.079 260.689V260.689C535.882 260.609 535.727 260.462 535.648 260.28C535.623 260.223 535.62 260.16 535.639 260.101C535.658 260.042 535.699 259.991 535.754 259.956ZM535.854 268.845C535.85 269.024 535.778 269.196 535.649 269.331C535.519 269.466 535.342 269.555 535.148 269.583C534.63 269.655 534.1 269.563 533.648 269.322C533.074 269.122 532.469 269.005 531.855 268.976C531.766 268.968 531.68 268.944 531.602 268.903C531.525 268.863 531.457 268.808 531.405 268.743C531.329 268.508 531.356 268.256 531.48 268.038V268.038C531.533 267.827 531.533 267.608 531.48 267.397C531.418 267.223 531.418 267.036 531.48 266.863C531.526 266.789 531.588 266.724 531.662 266.672C531.736 266.62 531.821 266.583 531.911 266.562C532.124 266.52 532.322 266.43 532.486 266.3V266.3C532.648 266.147 532.767 265.954 532.905 265.818C532.954 265.761 533.017 265.715 533.088 265.682C533.159 265.65 533.237 265.632 533.317 265.63H533.423C533.684 265.693 533.908 265.846 534.048 266.056L534.617 267.005C534.836 267.334 535.087 267.646 535.366 267.936C535.622 268.184 535.782 268.501 535.823 268.839L535.854 268.845ZM535.804 268.152C535.729 268.044 535.641 267.942 535.554 267.834L535.385 267.635C535.484 267.637 535.582 267.62 535.673 267.584C535.764 267.548 535.835 267.48 535.873 267.397C535.897 267.278 535.889 267.156 535.851 267.04C535.813 266.925 535.746 266.819 535.654 266.732C535.344 266.382 534.965 266.09 534.535 265.869V265.869C534.196 265.692 533.938 265.41 533.811 265.074C533.72 264.767 533.72 264.443 533.811 264.136C533.981 263.578 534.249 263.049 534.604 262.569C534.667 262.523 534.604 262.654 534.348 263.137C534.092 263.62 533.629 264.557 534.267 265.329C534.291 264.766 534.428 264.211 534.673 263.693C535.029 262.966 535.766 261.7 535.829 260.694C535.887 260.734 535.947 260.77 536.01 260.802V260.802C536.139 260.886 536.262 260.977 536.379 261.075C536.531 261.193 536.722 261.261 536.922 261.268H536.997C537.218 261.264 537.433 261.207 537.622 261.103C537.768 261.011 537.923 260.931 538.084 260.865V260.865C538.333 260.791 538.551 260.65 538.709 260.462C538.996 261.339 539.379 262.188 539.853 262.995C540.176 263.528 540.408 264.102 540.54 264.699C540.65 264.697 540.759 264.708 540.865 264.733C540.984 264.333 540.984 263.911 540.863 263.511C540.742 263.112 540.505 262.749 540.178 262.461C540.04 262.336 540.034 262.285 540.103 262.285C540.598 262.723 540.945 263.281 541.102 263.892C541.187 264.204 541.187 264.529 541.102 264.841L541.234 264.892C541.858 265.176 542.121 265.426 542.002 265.766H541.883C541.977 265.5 541.765 265.301 541.215 265.074C540.665 264.846 540.184 264.863 540.103 265.329C540.103 265.358 540.103 265.38 540.103 265.403L539.971 265.46C539.84 265.533 539.727 265.631 539.64 265.748C539.554 265.865 539.497 265.997 539.472 266.136C539.392 266.485 539.35 266.841 539.347 267.198V267.198C539.305 267.46 539.238 267.718 539.147 267.97C538.679 268.311 538.106 268.512 537.507 268.544C536.908 268.577 536.313 268.44 535.804 268.152V268.152ZM543.033 268.192C542.463 268.399 541.941 268.704 541.496 269.089C541.19 269.452 540.743 269.696 540.246 269.771C540.038 269.798 539.825 269.762 539.641 269.669C539.457 269.575 539.312 269.429 539.228 269.254V269.254C539.119 268.937 539.133 268.597 539.265 268.288C539.398 267.937 539.494 267.576 539.553 267.209V267.209C539.561 266.862 539.603 266.516 539.678 266.175C539.696 266.06 539.741 265.95 539.81 265.852C539.879 265.754 539.97 265.671 540.078 265.607H540.109C540.101 265.774 540.15 265.938 540.248 266.078C540.347 266.218 540.49 266.327 540.659 266.391C540.87 266.403 541.082 266.371 541.277 266.296C541.472 266.221 541.646 266.106 541.783 265.96H541.915C542.009 265.948 542.105 265.954 542.197 265.979C542.289 266.003 542.373 266.045 542.446 266.102V266.102C542.583 266.241 542.668 266.416 542.69 266.601C542.733 266.818 542.831 267.022 542.977 267.198V267.198C543.283 267.504 543.383 267.715 543.371 267.851C543.358 267.987 543.233 268.084 543.033 268.192V268.192ZM535.866 260.297C535.766 260.223 535.779 260.121 535.816 260.121C535.854 260.121 535.904 260.217 535.948 260.251C536.019 260.318 536.094 260.38 536.172 260.439C536.377 260.598 536.635 260.688 536.904 260.694C537.215 260.668 537.515 260.575 537.778 260.422C537.919 260.344 538.055 260.259 538.184 260.166C538.284 260.098 538.278 260.019 538.359 260.03C538.441 260.041 538.359 260.115 538.266 260.206C538.133 260.311 537.989 260.402 537.835 260.479C537.554 260.641 537.235 260.74 536.904 260.768C536.606 260.758 536.322 260.651 536.104 260.467C536.022 260.414 535.942 260.357 535.866 260.297V260.297Z" fill="#5873A3" stroke="#5873A3" stroke-width="2" mask="url(#path-71-inside-1_0_1)"/>
</g>
<path opacity="0.28" d="M545.667 261.32H557.583" stroke="#0C1740" stroke-width="2" stroke-miterlimit="10" stroke-linecap="round" stroke-linejoin="round"/>
<path opacity="0.28" d="M545.667 264.577H554.873" stroke="#0C1740" stroke-width="2" stroke-miterlimit="10" stroke-linecap="round" stroke-linejoin="round"/>
<defs>
<clipPath id="clip0_0_1">
<rect width="15" height="13.635" fill="white" transform="translate(530 256.321)"/>
</clipPath>
</defs>
</svg>
